<svg xmlns="http://www.w3.org/2000/svg" xmlns:xlink="http://www.w3.org/1999/xlink" width="304" height="349" viewBox="0 0 304 349">
  <defs>
    <filter id="Elipse_245" x="49" y="93" width="255" height="256" filterUnits="userSpaceOnUse">
      <feOffset dx="5" dy="5" input="SourceAlpha"/>
      <feGaussianBlur stdDeviation="5" result="blur"/>
      <feFlood flood-opacity="0.161"/>
      <feComposite operator="in" in2="blur"/>
      <feComposite in="SourceGraphic"/>
    </filter>
  </defs>
  <g id="Grupo_4258" data-name="Grupo 4258" transform="translate(-36 -100)">
    <g id="Grupo_4227" data-name="Grupo 4227" transform="translate(-7280.952 -6870)">
      <circle id="Elipse_243" data-name="Elipse 243" cx="66" cy="66" r="66" transform="translate(7316.952 6994)" fill="#e54360" opacity="0.3"/>
      <g id="Grupo_4226" data-name="Grupo 4226" transform="translate(7361.462 6970)">
        <text id="_5" data-name="5" transform="translate(21.49 135)" fill="#fff" font-size="129" font-family="Poppins-SemiBold, Poppins" font-weight="600"><tspan x="-40.828" y="0">5</tspan></text>
      </g>
    </g>
    <g id="Grupo_4252" data-name="Grupo 4252">
      <g transform="matrix(1, 0, 0, 1, 36, 100)" filter="url(#Elipse_245)">
        <ellipse id="Elipse_245-2" data-name="Elipse 245" cx="112.5" cy="113" rx="112.5" ry="113" transform="translate(59 103)" fill="#fff"/>
      </g>
      <g id="Grupo_4236" data-name="Grupo 4236" transform="translate(-7877 -7570)">
        <path id="Trazado_651" data-name="Trazado 651" d="M1348.821,11034.719h-99.9A12.922,12.922,0,0,1,1236,11021.8v-98.873a12.922,12.922,0,0,1,12.922-12.922h110.1a12.922,12.922,0,0,1,12.922,12.922v90.994" transform="translate(6781 -3084.719)" fill="none" stroke="#e54360" stroke-linecap="round" stroke-linejoin="round" stroke-width="8"/>
        <path id="Trazado_652" data-name="Trazado 652" d="M1343.741,11054.2h-32.378a5.364,5.364,0,0,1-5.363-5.363v-42.47a5.364,5.364,0,0,1,5.363-5.364h42.47a5.365,5.365,0,0,1,5.364,5.364v32.842Z" transform="translate(6752.375 -3121.93)" fill="none" stroke="#e54360" stroke-linecap="round" stroke-linejoin="round" stroke-width="8"/>
        <path id="Trazado_653" data-name="Trazado 653" d="M1321.17,11036.187l12.9,11.821,22.461-26.007" transform="translate(6746.172 -3130.518)" fill="none" stroke="#e54360" stroke-linecap="round" stroke-linejoin="round" stroke-width="8"/>
        <line id="Línea_3" data-name="Línea 3" y1="30.007" transform="translate(8046.554 7811.234)" fill="none" stroke="#e54360" stroke-linecap="round" stroke-linejoin="round" stroke-width="8"/>
        <line id="Línea_4" data-name="Línea 4" y1="30.007" transform="translate(8122.804 7811.234)" fill="none" stroke="#e54360" stroke-linecap="round" stroke-linejoin="round" stroke-width="8"/>
        <line id="Línea_5" data-name="Línea 5" x2="135.949" transform="translate(8017 7855.301)" fill="none" stroke="#e54360" stroke-linecap="round" stroke-linejoin="round" stroke-width="8"/>
      </g>
    </g>
  </g>
</svg>
