<svg xmlns="http://www.w3.org/2000/svg" xmlns:xlink="http://www.w3.org/1999/xlink" width="302" height="349" viewBox="0 0 302 349">
  <defs>
    <filter id="Elipse_245" x="47" y="93" width="255" height="256" filterUnits="userSpaceOnUse">
      <feOffset dx="5" dy="5" input="SourceAlpha"/>
      <feGaussianBlur stdDeviation="5" result="blur"/>
      <feFlood flood-opacity="0.161"/>
      <feComposite operator="in" in2="blur"/>
      <feComposite in="SourceGraphic"/>
    </filter>
  </defs>
  <g id="Grupo_4257" data-name="Grupo 4257" transform="translate(-38 -100)">
    <g id="Grupo_4231" data-name="Grupo 4231" transform="translate(-7278.952 -6870)">
      <circle id="Elipse_243" data-name="Elipse 243" cx="66" cy="66" r="66" transform="translate(7316.952 6994)" fill="#32b6dd" opacity="0.3"/>
      <g id="Grupo_4226" data-name="Grupo 4226" transform="translate(7361.462 6970)">
        <text id="_4" data-name="4" transform="translate(21.49 135)" fill="#fff" font-size="129" font-family="Poppins-SemiBold, Poppins" font-weight="600"><tspan x="-42.054" y="0">4</tspan></text>
      </g>
    </g>
    <g id="Grupo_4249" data-name="Grupo 4249">
      <g transform="matrix(1, 0, 0, 1, 38, 100)" filter="url(#Elipse_245)">
        <ellipse id="Elipse_245-2" data-name="Elipse 245" cx="112.5" cy="113" rx="112.5" ry="113" transform="translate(57 103)" fill="#fff"/>
      </g>
      <g id="Grupo_4237" data-name="Grupo 4237" transform="translate(-7580.789 -7557.599)">
        <path id="Trazado_654" data-name="Trazado 654" d="M970.82,10912.038H957.564a3.563,3.563,0,0,1-3.564-3.563v-29.91a3.563,3.563,0,0,1,3.564-3.563h5.7" transform="translate(6780.904 -3075.001)" fill="none" stroke="#009ace" stroke-linecap="round" stroke-linejoin="round" stroke-width="6"/>
        <path id="Trazado_655" data-name="Trazado 655" d="M989,10875h14.41a3.563,3.563,0,0,1,3.564,3.563v29.91a3.563,3.563,0,0,1-3.564,3.563h-6.785" transform="translate(6764.967 -3075.001)" fill="none" stroke="#009ace" stroke-linecap="round" stroke-linejoin="round" stroke-width="6"/>
        <path id="Trazado_656" data-name="Trazado 656" d="M1118.037,10900.032v8.442a3.563,3.563,0,0,1-3.564,3.563h-29.91a3.563,3.563,0,0,1-3.564-3.563v-29.91a3.563,3.563,0,0,1,3.564-3.563h29.91a3.563,3.563,0,0,1,3.564,3.563v10.527" transform="translate(6723.076 -3075.001)" fill="none" stroke="#009ace" stroke-linecap="round" stroke-linejoin="round" stroke-width="6"/>
        <path id="Trazado_657" data-name="Trazado 657" d="M971,10900.446l7.081,7.081L990.608,10895" transform="translate(6773.163 -3084.107)" fill="none" stroke="#009ace" stroke-linecap="round" stroke-linejoin="round" stroke-width="6"/>
        <line id="Línea_6" data-name="Línea 6" x2="16.317" y2="15.251" transform="translate(7813.903 7810.894)" fill="none" stroke="#009ace" stroke-linecap="round" stroke-linejoin="round" stroke-width="6"/>
        <line id="Línea_7" data-name="Línea 7" x1="16.317" y2="15.251" transform="translate(7813.903 7810.894)" fill="none" stroke="#009ace" stroke-linecap="round" stroke-linejoin="round" stroke-width="6"/>
        <rect id="Rectángulo_3439" data-name="Rectángulo 3439" width="44.972" height="44.054" rx="6.351" transform="translate(7745.996 7905.545)" fill="none" stroke="#009ace" stroke-linecap="round" stroke-linejoin="round" stroke-width="6"/>
        <line id="Línea_8" data-name="Línea 8" y2="8.24" transform="translate(7756.146 7917.103)" fill="none" stroke="#009ace" stroke-linecap="round" stroke-linejoin="round" stroke-width="6"/>
        <path id="Trazado_658" data-name="Trazado 658" d="M1047.638,11053.439v-9.26l5.1-8.158" transform="translate(6738.267 -3148.319)" fill="none" stroke="#009ace" stroke-linecap="round" stroke-linejoin="round" stroke-width="6"/>
        <path id="Trazado_659" data-name="Trazado 659" d="M1034.591,10996.476s.545-7.232-2.179-8.519v-17.244l-1.128-.943a6.165,6.165,0,0,0-7.929.017l-1.292,1.09-.081-.081a6.165,6.165,0,0,0-8.634-.082h0l-.893-.8a6.164,6.164,0,0,0-7.941-.238l-1.515,1.2v19.607" transform="translate(6758.592 -3117.498)" fill="none" stroke="#009ace" stroke-linecap="round" stroke-linejoin="round" stroke-width="6"/>
        <line id="Línea_9" data-name="Línea 9" y1="19.77" transform="translate(7771.941 7853.215)" fill="none" stroke="#009ace" stroke-linecap="round" stroke-linejoin="round" stroke-width="6"/>
        <line id="Línea_10" data-name="Línea 10" y1="19.77" transform="translate(7780.655 7853.215)" fill="none" stroke="#009ace" stroke-linecap="round" stroke-linejoin="round" stroke-width="6"/>
        <path id="Trazado_660" data-name="Trazado 660" d="M980.592,10953.778v-20.743l-.515-.491a6.367,6.367,0,0,0-9.289.537h0l-.545,36.492-10.951-4.266-1.207.287a5.591,5.591,0,0,0-4.181,6.563h0l16.885,18.658v14.706" transform="translate(6781 -3100.401)" fill="none" stroke="#009ace" stroke-linecap="round" stroke-linejoin="round" stroke-width="6"/>
      </g>
    </g>
  </g>
</svg>
