<svg xmlns="http://www.w3.org/2000/svg" xmlns:xlink="http://www.w3.org/1999/xlink" width="303" height="349" viewBox="0 0 303 349">
  <defs>
    <filter id="Elipse_245" x="48" y="93" width="255" height="256" filterUnits="userSpaceOnUse">
      <feOffset dx="5" dy="5" input="SourceAlpha"/>
      <feGaussianBlur stdDeviation="5" result="blur"/>
      <feFlood flood-opacity="0.161"/>
      <feComposite operator="in" in2="blur"/>
      <feComposite in="SourceGraphic"/>
    </filter>
  </defs>
  <g id="Grupo_4256" data-name="Grupo 4256" transform="translate(-37 -100)">
    <g id="Grupo_4227" data-name="Grupo 4227" transform="translate(-7279.952 -6870)">
      <circle id="Elipse_243" data-name="Elipse 243" cx="66" cy="66" r="66" transform="translate(7316.952 6994)" fill="#e54360" opacity="0.3"/>
      <g id="Grupo_4226" data-name="Grupo 4226" transform="translate(7361.462 6970)">
        <text id="_3" data-name="3" transform="translate(21.49 135)" fill="#fff" font-size="129" font-family="Poppins-SemiBold, Poppins" font-weight="600"><tspan x="-38.635" y="0">3</tspan></text>
      </g>
    </g>
    <g id="Grupo_4248" data-name="Grupo 4248">
      <g transform="matrix(1, 0, 0, 1, 37, 100)" filter="url(#Elipse_245)">
        <ellipse id="Elipse_245-2" data-name="Elipse 245" cx="112.5" cy="113" rx="112.5" ry="113" transform="translate(58 103)" fill="#fff"/>
      </g>
      <g id="Grupo_4238" data-name="Grupo 4238" transform="translate(-7217.954 -7572.5)">
        <path id="Trazado_643" data-name="Trazado 643" d="M576.313,11082.33l-3.313,9.121H714.907L693.915,11039H670.338" transform="translate(6781 -3148.452)" fill="none" stroke="#e54360" stroke-linecap="round" stroke-linejoin="round" stroke-width="6"/>
        <path id="Trazado_644" data-name="Trazado 644" d="M622.848,11039H599.459L584,11074.889" transform="translate(6776.073 -3148.452)" fill="none" stroke="#e54360" stroke-linecap="round" stroke-linejoin="round" stroke-width="6"/>
        <path id="Trazado_645" data-name="Trazado 645" d="M629.851,11102.648,645.945,11064l45.368,38.648" transform="translate(6755.538 -3159.649)" fill="none" stroke="#e54360" stroke-linecap="round" stroke-linejoin="round" stroke-width="6"/>
        <path id="Trazado_646" data-name="Trazado 646" d="M754.891,11115.638,729,11093h46.2" transform="translate(6711.131 -3172.637)" fill="none" stroke="#e54360" stroke-linecap="round" stroke-linejoin="round" stroke-width="6"/>
        <line id="Línea_1" data-name="Línea 1" x2="14.996" transform="translate(7466.774 7908.492)" fill="none" stroke="#e54360" stroke-linecap="round" stroke-linejoin="round" stroke-width="6"/>
        <line id="Línea_2" data-name="Línea 2" x1="25.75" transform="translate(7434.258 7908.492)" fill="none" stroke="#e54360" stroke-linecap="round" stroke-linejoin="round" stroke-width="6"/>
        <path id="Trazado_647" data-name="Trazado 647" d="M598,11056.944h18.9L624.8,11039" transform="translate(6769.803 -3148.452)" fill="none" stroke="#e54360" stroke-linecap="round" stroke-linejoin="round" stroke-width="6"/>
        <path id="Trazado_648" data-name="Trazado 648" d="M599.408,11115.638,607.25,11093H588.738" transform="translate(6773.951 -3172.637)" fill="none" stroke="#e54360" stroke-linecap="round" stroke-linejoin="round" stroke-width="6"/>
        <path id="Trazado_649" data-name="Trazado 649" d="M678.429,10925.141a17.947,17.947,0,1,1-7.652,8.008" transform="translate(6738.007 -3096.495)" fill="none" stroke="#e54360" stroke-linecap="round" stroke-linejoin="round" stroke-width="6"/>
        <path id="Trazado_650" data-name="Trazado 650" d="M621,10919.722c2.209,40.858,44.722,71.224,44.722,71.224l-.251-.164s42.764-30.2,44.973-71.06a44.722,44.722,0,0,0-89.444,0Z" transform="translate(6759.502 -3075)" fill="none" stroke="#e54360" stroke-linecap="round" stroke-linejoin="round" stroke-width="6"/>
      </g>
    </g>
  </g>
</svg>
