<svg xmlns="http://www.w3.org/2000/svg" width="21.791" height="26.633" viewBox="0 0 21.791 26.633">
  <path id="ic_content_paste_24px" d="M22.369,2.421h-5.06a3.617,3.617,0,0,0-6.828,0H5.421A2.428,2.428,0,0,0,3,4.842V24.212a2.428,2.428,0,0,0,2.421,2.421H22.369a2.428,2.428,0,0,0,2.421-2.421V4.842A2.428,2.428,0,0,0,22.369,2.421Zm-8.474,0a1.211,1.211,0,1,1-1.211,1.211A1.214,1.214,0,0,1,13.9,2.421Zm8.474,21.791H5.421V4.842H7.842V8.474H19.948V4.842h2.421Z" transform="translate(-3)" fill="#32b6dd"/>
</svg>
