<svg id="Grupo_4110" data-name="Grupo 4110" xmlns="http://www.w3.org/2000/svg" width="28.059" height="28.059" viewBox="0 0 28.059 28.059">
  <path id="Trazado_1476" data-name="Trazado 1476" d="M94.624,2.5c-.209,0-.417.007-.624.016V30.543c.207.009.415.016.624.016a14.029,14.029,0,0,0,0-28.059Z" transform="translate(-80.594 -2.5)" fill="#00acd8"/>
  <path id="Trazado_1477" data-name="Trazado 1477" d="M74.059,16.539A12.461,12.461,0,0,1,85.906,4.1V2.525a14.028,14.028,0,0,0,0,28.028V28.978A12.461,12.461,0,0,1,74.059,16.539Z" transform="translate(-72.5 -2.509)" fill="#00acd8"/>
  <path id="Trazado_1478" data-name="Trazado 1478" d="M94.624,5c-.211,0-.416.021-.624.031V29.91c.208.01.413.031.624.031A12.471,12.471,0,0,0,94.624,5Z" transform="translate(-80.594 -3.441)" fill="#0097ce"/>
  <path id="Trazado_1479" data-name="Trazado 1479" d="M75,17.489A12.461,12.461,0,0,0,86.847,29.929V5.05A12.461,12.461,0,0,0,75,17.489Z" transform="translate(-73.441 -3.46)" fill="#32b6dd"/>
  <g id="Grupo_4060" data-name="Grupo 4060" transform="translate(3.429 5.357)">
    <path id="Trazado_1480" data-name="Trazado 1480" d="M96.706,20.2a.293.293,0,0,0-.006-.046l0-.007a.284.284,0,0,0-.011-.037l-.008-.017-.014-.026-.014-.019-.01-.014-2.748-3.084-.012-.011-.011-.012-.009-.007-.021-.014-.025-.014-.021-.009-.029-.009-.021,0-.029,0H82.829l-.031,0-.021,0-.029.009-.02.009-.026.015-.017.012-.011.009a.071.071,0,0,0-.012.012l-.011.011-2.061,2.313a2.78,2.78,0,0,1-.518-1.18l0-.019a.192.192,0,0,0-.19-.226h-.02a.193.193,0,0,0-.148.069.2.2,0,0,0-.041.161l0,.016a2.29,2.29,0,0,1-1.53,1.906.193.193,0,0,0-.148.188v.011a.193.193,0,0,0,.147.188,2.288,2.288,0,0,1,1.53,1.906l0,.019a.192.192,0,0,0,.19.226h.02a.193.193,0,0,0,.148-.069.2.2,0,0,0,.041-.161l0-.016a2.851,2.851,0,0,1,.467-1.117L88.01,30.42a.258.258,0,0,0,.248.19l.02,0h.007a.256.256,0,0,0,.247-.186L96.649,20.37l.007-.009.012-.018h0l.012-.024.008-.019a.244.244,0,0,0,.009-.03l0-.016a.218.218,0,0,0,0-.032V20.2Zm-7.869-2.82h4.3l-2.1,2.425Zm7.074,3.085L88.83,29.234l2.4-8.769Zm-4.323-.514L93.7,17.514l2.172,2.437Zm-.892.514-2.424,8.862-2.424-8.862Zm-4.625-.514,2.2-2.429,2.2,2.429Zm-5,.233a2.473,2.473,0,0,0-.259.165,2.614,2.614,0,0,0-.216.176,2.641,2.641,0,0,0-.274.29,2.915,2.915,0,0,0-.446.769,2.69,2.69,0,0,0-1.2-1.4,2.691,2.691,0,0,0,1.2-1.4,2.9,2.9,0,0,0,.488.819,2.58,2.58,0,0,0,.279.281,2.514,2.514,0,0,0,.241.185C80.944,20.111,81.007,20.15,81.07,20.184Zm2.336-2.8h4.3L85.51,19.8Zm-2.04,3.086h3.948l2.4,8.767-6.826-8.453A2.079,2.079,0,0,1,81.366,20.466Zm.116-.514a2.077,2.077,0,0,1-.533-.317l1.891-2.122,2.117,2.439Z" transform="translate(-78 -13.266)" fill="#fff"/>
    <path id="Trazado_1481" data-name="Trazado 1481" d="M104.479,32.125a2.62,2.62,0,0,1-1.715-2.136l0-.027a.18.18,0,0,0-.039-.146.178.178,0,0,0-.137-.064h-.022a.178.178,0,0,0-.176.21l0,.027a2.564,2.564,0,0,1-1.715,2.136.178.178,0,0,0-.137.174v.012a.178.178,0,0,0,.137.173,2.617,2.617,0,0,1,1.715,2.136l0,.027a.178.178,0,0,0,.176.21h.022a.179.179,0,0,0,.176-.21l0-.027a2.561,2.561,0,0,1,1.715-2.136.178.178,0,0,0,.137-.173V32.3A.178.178,0,0,0,104.479,32.125Zm-.506.18a2.927,2.927,0,0,0-1.392,1.64,2.927,2.927,0,0,0-1.392-1.64,2.925,2.925,0,0,0,1.392-1.64A2.927,2.927,0,0,0,103.974,32.3Z" transform="translate(-86.489 -18.117)" fill="#fff"/>
    <path id="Trazado_1482" data-name="Trazado 1482" d="M100.547,12.836a1.484,1.484,0,0,1,.964,1.2v0a.168.168,0,0,0,.037.139.17.17,0,0,0,.13.061h.012a.171.171,0,0,0,.168-.2v0a1.452,1.452,0,0,1,.965-1.2.17.17,0,0,0,.13-.165v-.007a.17.17,0,0,0-.131-.165,1.483,1.483,0,0,1-.964-1.2v0a.171.171,0,0,0-.168-.2h-.012a.17.17,0,0,0-.13.061.168.168,0,0,0-.037.139v0a1.451,1.451,0,0,1-.964,1.2.17.17,0,0,0-.131.165v.007A.169.169,0,0,0,100.547,12.836Zm.445-.169a1.775,1.775,0,0,0,.693-.8,1.775,1.775,0,0,0,.693.8,1.775,1.775,0,0,0-.693.8A1.775,1.775,0,0,0,100.992,12.667Z" transform="translate(-86.439 -11.092)" fill="#fff"/>
  </g>
</svg>
