<svg id="Grupo_3982" data-name="Grupo 3982" xmlns="http://www.w3.org/2000/svg" width="27.548" height="15.132" viewBox="0 0 27.548 15.132">
  <path id="Trazado_1412" data-name="Trazado 1412" d="M6.742,29.566q6.764-.007,13.528,0t13.529,0c.177,0,.247-.029.246-.233q-.009-5.62,0-11.241c0-.19-.057-.227-.233-.227q-13.528.006-27.057,0c-.19,0-.257.035-.257.245q.011,5.609,0,11.221C6.5,29.527,6.559,29.566,6.742,29.566Zm.712-9A2.754,2.754,0,0,0,9.172,18.83a.23.23,0,0,1,.267-.179c1.253,0,2.507,0,3.759,0q8.932,0,17.865,0a.282.282,0,0,1,.324.22,2.738,2.738,0,0,0,1.7,1.7.226.226,0,0,1,.179.251q-.006,2.895,0,5.788a.239.239,0,0,1-.185.268,2.747,2.747,0,0,0-1.708,1.719.245.245,0,0,1-.282.19q-5.421-.006-10.843,0-5.381,0-10.761,0a.293.293,0,0,1-.339-.229,2.724,2.724,0,0,0-1.693-1.68.238.238,0,0,1-.184-.269q.006-2.893,0-5.787A.225.225,0,0,1,7.455,20.565Z" transform="translate(-6.497 -17.864)" fill="#00acd8"/>
  <path id="Trazado_1413" data-name="Trazado 1413" d="M32.942,33.7H7.646c-.354,0-.359,0-.364-.344,0-.117-.03-.173-.162-.163a4.26,4.26,0,0,1-.475,0c-.112-.005-.143.039-.142.14,0,.288,0,.577,0,.865,0,.261,0,.261.264.261h27.01c.042,0,.083,0,.124,0,.109.012.143-.037.142-.14q-.007-.492,0-.985c0-.1-.029-.146-.141-.141a2.721,2.721,0,0,1-.433,0c-.171-.018-.208.051-.205.2C33.269,33.751,33.306,33.7,32.942,33.7Z" transform="translate(-6.498 -21.045)" fill="#00acd8"/>
  <path id="Trazado_1414" data-name="Trazado 1414" d="M33.9,35.435a3.033,3.033,0,0,1-.434,0c-.17-.016-.206.054-.2.206,0,.323.07.3-.3.3H7.642c-.35,0-.356,0-.362-.344,0-.12-.038-.169-.165-.163a3.906,3.906,0,0,1-.454,0c-.132-.008-.162.049-.16.166.006.281.016.564,0,.844-.014.2.046.256.258.255q6.753-.009,13.506,0H33.644c.083,0,.165,0,.248,0,.1.006.152-.023.15-.133-.006-.328,0-.656,0-.985C34.043,35.476,34.01,35.43,33.9,35.435Z" transform="translate(-6.496 -21.568)" fill="#00acd8"/>
  <path id="Trazado_1415" data-name="Trazado 1415" d="M18.009,24.631a4.641,4.641,0,0,0,9.2-.429,4.64,4.64,0,0,0-7.039-4.34,4.436,4.436,0,0,0-2.219,4.009,1.044,1.044,0,0,0,.019.362A1.311,1.311,0,0,0,18.009,24.631Zm1.918-.36.005,0h0Zm0,.284a.216.216,0,0,0,.086.1A.216.216,0,0,1,19.926,24.556Zm6.108-.319h0l.011-.008h0Zm-.276.271c0-.192.014-.25.127-.265C25.772,24.258,25.762,24.316,25.758,24.508Zm-5.009,1.385a5.967,5.967,0,0,0,.158-.623c.031-.151.074-.2.234-.117a2.689,2.689,0,0,0,1.362.284.873.873,0,0,0,.541-.187.411.411,0,0,0,.141-.416.07.07,0,0,0-.033-.083.256.256,0,0,0-.123-.2.192.192,0,0,0-.117-.091,1.557,1.557,0,0,0-.527-.251l-.083-.018a3.633,3.633,0,0,0-.522-.2.085.085,0,0,0-.076-.045c-.1-.059-.195-.117-.29-.179a1.389,1.389,0,0,1-.019-2.344,1.918,1.918,0,0,1,.659-.289.162.162,0,0,0,.15-.192c-.008-.167,0-.335,0-.5,0-.11.032-.156.149-.151.181.008.362.006.543,0,.1,0,.14.028.143.136.005.2-.089.455.039.578s.368.065.556.107.347.1.52.154c.077.025.123.061.1.161q-.1.367-.189.739c-.031.132-.1.088-.176.054a2.593,2.593,0,0,0-1.073-.227,1.609,1.609,0,0,0-.357.043.449.449,0,0,0-.38.366.433.433,0,0,0,.245.446,3.734,3.734,0,0,0,.727.34c.112.044.225.084.337.131a1.948,1.948,0,0,1,1.018.836l.032.083a1.684,1.684,0,0,1,.022.988,1.6,1.6,0,0,1-1.232,1.093c-.192.048-.248.125-.231.309.016.166,0,.335,0,.5,0,.084-.031.12-.118.119-.194,0-.389-.006-.583,0-.113,0-.134-.054-.132-.149,0-.16-.008-.322,0-.482.01-.136-.04-.188-.176-.2a3.653,3.653,0,0,1-1.109-.264C20.747,26.1,20.7,26.035,20.749,25.893Zm1.5-.925a.128.128,0,0,0,.048-.1A.128.128,0,0,1,22.251,24.968Zm-.153-.2c0-.166,0-.33,0-.5l-.016-.016.016.016.005-.005h0l-.005.005C22.1,24.439,22.1,24.6,22.1,24.769Zm-.948-.436a.132.132,0,0,1,.06-.065l.02-.02-.02.02A.132.132,0,0,0,21.151,24.333Zm.1-.1h0l.006.005Zm.633.043a.207.207,0,0,0-.067.19A.207.207,0,0,1,21.884,24.272Zm1.185.647h0l-.014-.012h0Z" transform="translate(-8.807 -18.161)" fill="#00acd8"/>
  <path id="Trazado_1416" data-name="Trazado 1416" d="M12.24,25.96a1.006,1.006,0,1,0-1.008-1.006A1,1,0,0,0,12.24,25.96Z" transform="translate(-7.601 -19.138)" fill="#00acd8"/>
  <path id="Trazado_1417" data-name="Trazado 1417" d="M35.137,25.96a1.006,1.006,0,1,0,0-2.013,1.006,1.006,0,0,0,0,2.013Z" transform="translate(-12.225 -19.138)" fill="#00acd8"/>
</svg>
