<svg xmlns="http://www.w3.org/2000/svg" width="27" height="27" viewBox="0 0 27 27">
  <g id="Grupo_3793" data-name="Grupo 3793" transform="translate(-286 -429)">
    <g id="Yes" transform="translate(286 429)" opacity="0.6">
      <circle id="Elipse_110" data-name="Elipse 110" cx="13.5" cy="13.5" r="13.5" fill="#8e8c89"/>
    </g>
    <path id="ic_build_24px" d="M1.161,13.855,7.646,7.371A4.573,4.573,0,0,1,8.714,2.454a4.711,4.711,0,0,1,5.273-.926L10.923,4.592l2.138,2.138L16.2,3.665a4.592,4.592,0,0,1-.926,5.273,4.573,4.573,0,0,1-4.917,1.069L3.869,16.491a.689.689,0,0,1-1,0L1.232,14.853a.642.642,0,0,1-.071-1Z" transform="translate(291.044 433.9)" fill="#fff"/>
  </g>
</svg>
