<svg id="Grupo_4111" data-name="Grupo 4111" xmlns="http://www.w3.org/2000/svg" width="63.088" height="63.088" viewBox="0 0 63.088 63.088">
  <path id="Trazado_1459" data-name="Trazado 1459" d="M-44.6,2.5c-.47,0-.938.015-1.4.035V65.553c.466.02.934.035,1.4.035A31.571,31.571,0,0,0-13,34.044,31.571,31.571,0,0,0-44.6,2.5Z" transform="translate(76.087 -2.5)" fill="#00acd8"/>
  <path id="Trazado_1460" data-name="Trazado 1460" d="M-63.989,34.034A28.038,28.038,0,0,1-37.308,6.065V2.525A31.566,31.566,0,0,0-67.5,34.034,31.566,31.566,0,0,0-37.308,65.543V62A28.038,28.038,0,0,1-63.989,34.034Z" transform="translate(67.5 -2.49)" fill="#00acd8"/>
  <path id="Trazado_1461" data-name="Trazado 1461" d="M-44.6,5c-.475,0-.937.048-1.4.07V61c.468.022.93.07,1.4.07A28.059,28.059,0,0,0-16.51,33.033,28.059,28.059,0,0,0-44.6,5Z" transform="translate(76.087 -1.489)" fill="#0097ce"/>
  <path id="Trazado_1462" data-name="Trazado 1462" d="M-65,33.013A28.034,28.034,0,0,0-38.318,60.976V5.05A28.034,28.034,0,0,0-65,33.013Z" transform="translate(68.511 -1.469)" fill="#32b6dd"/>
  <path id="Trazado_1463" data-name="Trazado 1463" d="M-25.625,21.335a3.985,3.985,0,0,0,1.3,2.835,2.75,2.75,0,0,0,3.924-.045c.466-.479.983-1,1.581-1.587a2.77,2.77,0,0,0,.847-1.974,2.819,2.819,0,0,0-.869-2.009,3.958,3.958,0,0,0-2.635-1.219H-21.5a2.344,2.344,0,0,0-.828-2.1c-.28-.268-.556-.548-.824-.818-.4-.4-.808-.819-1.238-1.2a10.274,10.274,0,0,0-4.221-2.27,11.009,11.009,0,0,0-3.438-.367,11.357,11.357,0,0,0-3.527.762c-.6.231-1.21.455-1.8.671l-.607.223a.855.855,0,0,0-.447.3.656.656,0,0,0-.094.556.69.69,0,0,0,.394.438l.067.029c1.083.472,2.2.961,3.31,1.431a17.588,17.588,0,0,1,4.016,2.369c.071.056.076.077.077.078s0,.024-.069.09c-2.647,2.639-5.336,5.327-8.216,8.215-.06.06-.084.064-.09.064s-.027,0-.084-.062c-1.413-1.423-2.719-2.727-3.988-3.988-.055-.053-.049-.08-.018-.171l.008-.027a7.4,7.4,0,0,0,.083-4.471,7.613,7.613,0,0,0-5.691-5.5,7.493,7.493,0,0,0-5.069.468.721.721,0,0,0-.468.514.775.775,0,0,0,.266.671q.66.664,1.324,1.324l1.271,1.269q.445.448.892.894a.2.2,0,0,1,.06.21c-.1.738-.176,1.473-.234,2.031-.01.088-.014.088-.076.1-.77.083-1.45.16-2.073.237a.2.2,0,0,1-.191-.07q-1.511-1.517-3.026-3.027l-.436-.437a1.962,1.962,0,0,0-.148-.136.682.682,0,0,0-.57-.133.642.642,0,0,0-.438.359,7.268,7.268,0,0,0-.728,2.783A7.731,7.731,0,0,0-56.879,23.8a7.615,7.615,0,0,0,3.754,2.773,7.727,7.727,0,0,0,4.984.042c.084-.027.1-.028.136.011q1.488,1.492,2.978,2.981l.838.838a5.337,5.337,0,0,1-1.185.219,1.311,1.311,0,0,0-.873.423c-.67.681-1.357,1.367-2.021,2.031l-1.715,1.716c-.791.793-1.583,1.587-2.379,2.374-.15.147-.3.3-.444.447a10.766,10.766,0,0,1-1.738,1.535,8.171,8.171,0,0,1-2.933,1.326,2.343,2.343,0,0,1-.7.021.7.7,0,0,0-.625.213c-.157.16-.317.317-.476.473s-.345.34-.514.514a.674.674,0,0,0,.035,1q1.145,1.151,2.3,2.3l2.026,2.024q1.826,1.824,3.65,3.649a.812.812,0,0,0,.555.293.807.807,0,0,0,.553-.29c.141-.14.282-.28.422-.422.168-.168.335-.338.5-.5a.7.7,0,0,0,.2-.625,2.7,2.7,0,0,1,.146-1.2,9.893,9.893,0,0,1,2.6-4.037c1.486-1.462,2.984-2.962,4.432-4.413q1.187-1.189,2.376-2.376a.928.928,0,0,0,.294-.677,4.057,4.057,0,0,1,.259-1.256l.16.155c.175.172.343.339.511.507l3.376,3.374c.062.062.122.125.182.186.123.127.252.259.387.382.049.045.053.069.027.148a7.258,7.258,0,0,0-.378,2.881,7.649,7.649,0,0,0,2.965,5.675,7.7,7.7,0,0,0,5.789,1.633,6.983,6.983,0,0,0,2.285-.642.756.756,0,0,0,.466-.527.763.763,0,0,0-.266-.66c-.532-.536-1.066-1.069-1.6-1.6l-1.109-1.108c-.263-.265-.527-.529-.791-.791a.145.145,0,0,1-.05-.151c.092-.756.176-1.517.241-2.1a.155.155,0,0,1,.011-.056.093.093,0,0,1,.042-.011c.685-.076,1.384-.158,2.139-.252.056-.007.08.014.144.078l.989.986c.78.775,1.586,1.576,2.365,2.378a.928.928,0,0,0,.808.367c.249-.05.452-.263.6-.636a7.766,7.766,0,0,0,.261-5.322,7.6,7.6,0,0,0-4.377-4.9,7.634,7.634,0,0,0-5.525-.255c-.077.025-.1.017-.168-.049-1.506-1.509-3.013-3.016-4.537-4.533-.17-.169-.283-.282-.283-.345s.112-.172.28-.34l.018-.018q1.723-1.716,3.442-3.437l4.89-4.891a1.39,1.39,0,0,1,.521-.049v.046ZM-50.874,48.7a.741.741,0,0,1-.335.667l-.024.02-.015-.014q-.534-.54-1.07-1.074l-3.471-3.472q-1.294-1.294-2.59-2.583l-.018-.018.028-.032c.188-.2.349-.371.633-.317a.874.874,0,0,0,.423-.045c.118-.042.175,0,.3.122q1.471,1.477,2.946,2.95l1.228,1.23,1.922,1.924h0l.034.032c.052.045.07.063.052.14,0,.036-.01.076-.017.116A1.271,1.271,0,0,0-50.874,48.7Zm22.362-6.746-.043.377c-.094.817-.19,1.66-.3,2.488a.827.827,0,0,0,.265.737l1.013,1.008q.719.719,1.441,1.436c.162.16.335.315.5.465l.148.133-.165.043c-.169.045-.345.09-.517.118a6.255,6.255,0,0,1-5.955-1.983,6.225,6.225,0,0,1-1.306-6.687.837.837,0,0,0-.206-.979q-1.326-1.311-2.643-2.633-1.2-1.191-2.391-2.383c-.07-.069-.084-.1-.084-.12s.028-.063.085-.119c.866-.856,1.79-1.78,2.825-2.825.046-.046.063-.05.063-.05s.02.006.07.056q1.269,1.273,2.541,2.542,1.288,1.288,2.576,2.577a.729.729,0,0,0,.868.183,6.236,6.236,0,0,1,2.171-.445,6.377,6.377,0,0,1,3.141.712,6.433,6.433,0,0,1,2.451,2.189,6.552,6.552,0,0,1,1.081,3.28,6.268,6.268,0,0,1-.262,2.143l-.029-.029-.49-.493q-1.273-1.275-2.544-2.552a.825.825,0,0,0-.726-.247c-.78.1-1.56.19-2.341.284l-.545.064A.69.69,0,0,0-28.512,41.952ZM-49.437,19.729c.018-.116.032-.234.046-.353l.094-.818c.07-.6.139-1.2.216-1.805a.817.817,0,0,0-.242-.726L-50,15.35q-.878-.876-1.757-1.748c-.168-.167-.342-.326-.521-.493l-.155-.143.011,0,.241-.059c.195-.048.4-.1.6-.127a6.312,6.312,0,0,1,4.588,1,6.352,6.352,0,0,1,2.926,5.292,5.986,5.986,0,0,1-.455,2.5.684.684,0,0,0,.144.8l1.091,1.094q1.62,1.622,3.244,3.238c.056.056.06.076.06.076s-.007.022-.06.076c-1.062,1.052-2,1.986-2.858,2.86-.052.052-.071.055-.071.055s-.024-.008-.08-.064q-.948-.952-1.9-1.9-1.177-1.179-2.353-2.359a.809.809,0,0,0-.579-.279.852.852,0,0,0-.3.062,6.351,6.351,0,0,1-3.324.385,6.46,6.46,0,0,1-3.852-2.06,6.378,6.378,0,0,1-1.562-3.1,6.3,6.3,0,0,1,.141-3.093l.029.032.29.293q1.372,1.37,2.743,2.744a.788.788,0,0,0,.773.244,3.366,3.366,0,0,1,.378-.053l1.059-.119c.473-.052.946-.105,1.419-.16A.683.683,0,0,0-49.437,19.729Zm7.358,11.023c.689-.671,1.378-1.367,2.045-2.038l.89-.9q1.647-1.649,3.3-3.3l2.189-2.186,2-2q.975-.973,1.944-1.951c.052-.052.069-.053.07-.053s.017,0,.066.05c.691.7,1.42,1.426,2.233,2.228l.018.02-.027.027q-.79.782-1.572,1.569l-1.352,1.357q-.952.956-1.906,1.912t-1.9,1.9q-.706.7-1.411,1.406l-1.363,1.361Q-38.026,31.334-39.2,32.5a5.661,5.661,0,0,0-1.156,1.461,6.931,6.931,0,0,0-.464,1.185l-3.33-3.331A3.714,3.714,0,0,0-42.078,30.753Zm20.362-12.1a2.806,2.806,0,0,1,1.961.878,1.4,1.4,0,0,1,.07,1.976c-.539.567-1.123,1.151-1.786,1.786a1.349,1.349,0,0,1-1.715.1A2.67,2.67,0,0,1-24.3,21.263a1.205,1.205,0,0,0-1.306-1.3h-.042a1,1,0,0,1-.768-.31q-.466-.46-.932-.926c-.466-.466-.95-.948-1.43-1.416a17.161,17.161,0,0,0-3.352-2.5A26.02,26.02,0,0,0-35,13.435l-.3-.129-.682-.3-.112-.049.015-.007c.151-.056.289-.106.423-.161a11.351,11.351,0,0,1,3.59-.884,9.825,9.825,0,0,1,2.059.105,8.93,8.93,0,0,1,4.771,2.241c.45.413.888.857,1.313,1.286.266.268.531.536.8.8a1,1,0,0,1,.308.864c-.007.088-.014.182-.013.276A1.194,1.194,0,0,0-21.716,18.648ZM-41.322,36.565a.926.926,0,0,1-.143.158q-1.385,1.376-2.767,2.759-.576.574-1.15,1.153c-.814.817-1.656,1.661-2.492,2.483a11.092,11.092,0,0,0-1.944,2.5c-.191.338-.357.691-.518,1.032l-.025.05-5.357-5.349.139-.063a10.467,10.467,0,0,0,2.643-1.661c.493-.43.957-.9,1.4-1.36q.279-.288.563-.571c1.817-1.8,3.622-3.618,5.316-5.32.056-.056.076-.057.077-.057s.022,0,.08.06q1.765,1.773,3.536,3.539l.5.5A1.317,1.317,0,0,1-41.322,36.565Z" transform="translate(70.532 0.761)" fill="#fff"/>
</svg>
