<svg xmlns="http://www.w3.org/2000/svg" xmlns:xlink="http://www.w3.org/1999/xlink" width="81" height="81" viewBox="0 0 81 81">
  <defs>
    <filter id="Elipse_119" x="0" y="0" width="81" height="81" filterUnits="userSpaceOnUse">
      <feOffset dy="3" input="SourceAlpha"/>
      <feGaussianBlur stdDeviation="3" result="blur"/>
      <feFlood flood-opacity="0.161"/>
      <feComposite operator="in" in2="blur"/>
      <feComposite in="SourceGraphic"/>
    </filter>
  </defs>
  <g id="Grupo_4199" data-name="Grupo 4199" transform="translate(-325 -639)">
    <g transform="matrix(1, 0, 0, 1, 325, 639)" filter="url(#Elipse_119)">
      <circle id="Elipse_119-2" data-name="Elipse 119" cx="31.5" cy="31.5" r="31.5" transform="translate(9 6)" fill="#009ace"/>
    </g>
    <g id="Grupo_4135" data-name="Grupo 4135" transform="translate(-733 -2074)">
      <g id="Grupo_4134" data-name="Grupo 4134" transform="translate(1075.948 2732.053)">
        <g id="Grupo_3905" data-name="Grupo 3905" transform="translate(3.045 2.747)">
          <path id="Trazado_1444" data-name="Trazado 1444" d="M15.916,18.908a2.108,2.108,0,0,1,.556,1.429V35.888a1.057,1.057,0,0,0,1.8.753l4.338-4.972c.581-.7.9-1.042.9-1.731v-9.6a2.128,2.128,0,0,1,.556-1.429L36.514,5.4a1.584,1.584,0,0,0-1.165-2.656H4.632A1.583,1.583,0,0,0,3.468,5.4Z" transform="translate(-3.045 -2.747)" fill="#fff"/>
        </g>
      </g>
      <text id="_" data-name="+" transform="translate(1103 2768)" fill="#fff" font-size="35" font-family="Poppins-SemiBold, Poppins" font-weight="600"><tspan x="0" y="0">+</tspan></text>
    </g>
  </g>
</svg>
