<svg xmlns="http://www.w3.org/2000/svg" width="17.499" height="12.4" viewBox="0 0 17.499 12.4">
  <g id="Grupo_3899" data-name="Grupo 3899" transform="translate(-2.605 -9.131)">
    <path id="Trazado_1439" data-name="Trazado 1439" d="M11.513,19.445a.855.855,0,0,1,.978.144.878.878,0,0,1,.307,1.035.813.813,0,0,1,1.04.079.83.83,0,0,1,.311.976.813.813,0,0,1,1.142.723.049.049,0,0,0,0,.017c.024.084-.095.168-.035.226a.823.823,0,0,0,.346.193.6.6,0,0,0,.694-.26.174.174,0,0,0-.057-.256q-.708-.52-1.408-1.051c-.169-.128-.2-.267-.093-.415s.25-.173.434-.045q1.082.758,2.163,1.521a.511.511,0,0,0,.847-.295.435.435,0,0,0-.2-.5q-.866-.629-1.734-1.256l-.636-.462a.309.309,0,0,1-.109-.459.345.345,0,0,1,.466-.034q1.371.974,2.74,1.952a.574.574,0,0,0,.682.054.5.5,0,0,0,0-.816q-1.519-1.1-3.045-2.185c-.027-.02-.056-.037-.082-.058a.316.316,0,1,1,.375-.5c.275.191.546.388.818.582.808.577,1.614,1.156,2.424,1.731a.654.654,0,0,0,.922-.216.576.576,0,0,0-.141-.786Q18.6,17.3,16.547,15.506c-.189-.165-.368-.342-.545-.52a1.04,1.04,0,0,0-1.6.165,1.805,1.805,0,0,0-.125.461,1.905,1.905,0,0,1-1.274,1.346,1.528,1.528,0,0,1-.791.024.7.7,0,0,1-.449-.346.332.332,0,0,1-.016-.338,3.367,3.367,0,0,0,.341-1.534,1.377,1.377,0,0,1,.193-.646c.086-.147.167-.3.261-.466H11.164c.132-.266.25-.51.375-.749.034-.065.112-.037.171-.037q.989,0,1.979,0a.367.367,0,0,0,.194-.035,3.858,3.858,0,0,1,2.851-.39c.429.1.851.225,1.277.336a4.733,4.733,0,0,0,1.029.13.173.173,0,0,1,.176.115q1.108,2.325,2.223,4.647a.24.24,0,0,1,0,.234c-.091.185-.163.38-.257.563a.225.225,0,0,0,.029.281,1.25,1.25,0,0,1,.254,1.163,1.13,1.13,0,0,1-1,.858c-.247.032-.247.038-.276.313a1.01,1.01,0,0,1-.71.885,1.606,1.606,0,0,1-.513.064c-.09,0-.127.021-.162.118a1.173,1.173,0,0,1-.811.879,1.283,1.283,0,0,1-.956-.2c-.09-.053-.134-.067-.2.041a1.126,1.126,0,0,1-1.7.376c-.268-.17-.271-.172-.473.061a.485.485,0,0,1-.483.165.845.845,0,0,1-.713-.812c0-.03.013-.067-.023-.089-.407.325-.668.366-1.033.162a.933.933,0,0,1-.469-1.059.84.84,0,0,1-1.106-.06.879.879,0,0,1-.327-.992,1.974,1.974,0,0,1-.445.166.994.994,0,0,1-.929-.481.85.85,0,0,1,.079-.985c.146-.177.29-.354.441-.526a.115.115,0,0,0,0-.182c-.182-.211-.354-.432-.536-.643a.155.155,0,0,1-.02-.206c.092-.165.173-.337.267-.523.242.283.479.553.707.83.073.089.122.116.239.055a.9.9,0,0,1,1.055.216.89.89,0,0,1,.127,1.08c-.007.011-.023.027-.02.032C11.483,19.478,11.5,19.457,11.513,19.445Zm1.959,3.091-.012-.021s-.011.008-.011.011a.091.091,0,0,0,.011.023Z" transform="translate(-3.901 -1.948)" fill="#009ace"/>
    <path id="Trazado_1440" data-name="Trazado 1440" d="M35.99,10.045a.381.381,0,0,1,.225-.345c.356-.173.712-.345,1.071-.511a.388.388,0,0,1,.584.22q1.255,2.632,2.51,5.264a.384.384,0,0,1-.2.589c-.335.164-.671.326-1.01.483a.39.39,0,0,1-.6-.215q-1.264-2.646-2.524-5.294A.379.379,0,0,1,35.99,10.045Z" transform="translate(-20.342)" fill="#009ace"/>
    <path id="Trazado_1441" data-name="Trazado 1441" d="M7.06,10.072a.365.365,0,0,1-.05.169L4.786,14.9c-.108.226-.212.454-.323.679a.349.349,0,0,1-.485.2c-.4-.173-.791-.361-1.177-.559a.357.357,0,0,1-.143-.517L5.189,9.393a.382.382,0,0,1,.549-.214c.375.171.746.351,1.116.533A.369.369,0,0,1,7.06,10.072Z" transform="translate(0 0)" fill="#009ace"/>
    <path id="Trazado_1442" data-name="Trazado 1442" d="M15.347,30.5c-.014.012-.029.032-.046.006,0-.005.013-.021.02-.032Z" transform="translate(-7.736 -13.006)" fill="#009ace"/>
    <path id="Trazado_1443" data-name="Trazado 1443" d="M20.4,38.422l-.012.012a.091.091,0,0,1-.011-.023s.007-.007.011-.011Z" transform="translate(-10.828 -17.835)" fill="#009ace"/>
  </g>
</svg>
