<svg xmlns="http://www.w3.org/2000/svg" width="28.059" height="28.059" viewBox="0 0 28.059 28.059">
  <g id="Grupo_4109" data-name="Grupo 4109" transform="translate(0)">
    <path id="Trazado_1471" data-name="Trazado 1471" d="M24.624,2.5c-.209,0-.417.007-.624.016V30.543c.207.009.415.016.624.016a14.029,14.029,0,0,0,0-28.059Z" transform="translate(-10.594 -2.5)" fill="#00acd8"/>
    <path id="Trazado_1472" data-name="Trazado 1472" d="M4.059,16.539A12.461,12.461,0,0,1,15.906,4.1V2.525a14.028,14.028,0,0,0,0,28.028V28.978A12.461,12.461,0,0,1,4.059,16.539Z" transform="translate(-2.5 -2.509)" fill="#00acd8"/>
    <path id="Trazado_1473" data-name="Trazado 1473" d="M24.624,5c-.211,0-.416.021-.624.031V29.91c.208.01.413.031.624.031A12.471,12.471,0,0,0,24.624,5Z" transform="translate(-10.594 -3.441)" fill="#0097ce"/>
    <path id="Trazado_1474" data-name="Trazado 1474" d="M5,17.489A12.461,12.461,0,0,0,16.847,29.929V5.05A12.461,12.461,0,0,0,5,17.489Z" transform="translate(-3.441 -3.46)" fill="#32b6dd"/>
    <path id="Trazado_1475" data-name="Trazado 1475" d="M25.644,13.836a5.088,5.088,0,0,0-5.591,1.082c-.354.347-.548.539-.693.539h0c-.145,0-.342-.193-.7-.544a5.061,5.061,0,0,0-7.315,6.994c.5.548,1.036,1.065,1.558,1.565.172.166.2.228.047.454a1.351,1.351,0,0,0-.145,1.311,1.387,1.387,0,0,0,1.1.788c.216.032.223.08.254.281a1.274,1.274,0,0,0,1.171,1.155c.21.025.248.046.267.256A1.26,1.26,0,0,0,16.743,28.9c.224.035.262.055.282.251a1.273,1.273,0,0,0,.965,1.145,1.412,1.412,0,0,0,.4.059,1.453,1.453,0,0,0,1.039-.481q1.366-1.368,2.734-2.735c1.68-1.68,3.418-3.416,5.12-5.132a4.858,4.858,0,0,0,1.427-3.277v0A5.141,5.141,0,0,0,25.644,13.836ZM13.653,24.178c.382-.4.779-.789,1.163-1.17q.315-.312.629-.627a.661.661,0,0,1,.479-.213.811.811,0,0,1,.292.059.637.637,0,0,1,.38.534.78.78,0,0,1-.242.561q-.261.26-.521.523c-.416.419-.846.852-1.278,1.266a.651.651,0,1,1-.9-.933ZM14.96,25.8a25.257,25.257,0,0,1,2.067-2.083.509.509,0,0,1,.349-.144.644.644,0,0,1,.465.234.576.576,0,0,1,.046.831c-.492.524-1.014,1.036-1.521,1.531l-.481.473a.5.5,0,0,1-.31.109l-.055.007a.714.714,0,0,1-.633-.412A.5.5,0,0,1,14.96,25.8Zm1.462,1.38c.488-.529,1.012-1.045,1.518-1.543l.466-.461a.666.666,0,0,1,.4-.148.657.657,0,0,1,.578.362.571.571,0,0,1-.057.675c-.626.655-1.306,1.354-2.038,2.022a.547.547,0,0,1-.815-.08A.568.568,0,0,1,16.421,27.18Zm1.515,1.329c.471-.493.966-.981,1.445-1.453l.386-.381a.654.654,0,0,1,.463-.209.7.7,0,0,1,.3.072.641.641,0,0,1,.369.585.762.762,0,0,1-.256.518c-.226.224-.45.45-.674.676-.352.355-.716.721-1.08,1.076a.649.649,0,0,1-.96.068A.62.62,0,0,1,17.936,28.509Zm2.231-2.888c0-.036,0-.073-.008-.11A1.288,1.288,0,0,0,19,24.341c-.224-.031-.249-.075-.285-.306a1.245,1.245,0,0,0-1.139-1.12c-.229-.027-.261-.079-.307-.314a1.4,1.4,0,0,0-.9-1.089,1.262,1.262,0,0,0-.4-.064,1.468,1.468,0,0,0-.978.4c-.456.412-.88.852-1.2,1.19-.074.079-.13.119-.167.119s-.074-.019-.161-.112c-.237-.251-.486-.5-.728-.737-.3-.294-.606-.6-.891-.913A4.341,4.341,0,0,1,18.022,15.3c.436.4.677.624.68.8s-.232.408-.662.836c-.187.186-.372.374-.556.562-.39.4-.792.807-1.209,1.186a.688.688,0,0,0-.294.523.768.768,0,0,0,.381.518,2.953,2.953,0,0,0,3.592-.1,8.715,8.715,0,0,0,.884-.858c.071-.079.128-.118.17-.119h0c.045,0,.108.043.2.135,1.25,1.266,2.533,2.542,3.773,3.775l.21.209c.06.06.122.122.122.159,0,.012-.007.049-.077.118-.938.93-1.851,1.849-2.818,2.822l-.848.852a1.437,1.437,0,0,0-1.335-.965C20.175,25.756,20.171,25.756,20.167,25.622Zm1.513-7.371c-.309-.308-.481-.463-.656-.463s-.351.155-.667.465l-.008.008c-.064.062-.127.125-.191.188a9.112,9.112,0,0,1-.77.71,2.212,2.212,0,0,1-2.374.14c-.143-.084-.158-.124-.16-.134s0-.052.125-.174c.46-.451.918-.917,1.362-1.367.768-.778,1.561-1.583,2.378-2.333a4.3,4.3,0,0,1,4.362-.817,4.175,4.175,0,0,1,2.832,3.32c.007.05.014.1.019.15a5.086,5.086,0,0,1-1.8,4.188l-.046.041a.818.818,0,0,1-.246.186c-.046,0-.178-.126-.239-.187-.878-.872-1.766-1.761-2.626-2.623Z" transform="translate(-5.324 -6.611)" fill="#fff"/>
  </g>
</svg>
