<svg xmlns="http://www.w3.org/2000/svg" xmlns:xlink="http://www.w3.org/1999/xlink" width="67" height="67" viewBox="0 0 67 67">
  <defs>
    <filter id="Elipse_114" x="0" y="0" width="67" height="67" filterUnits="userSpaceOnUse">
      <feOffset dy="3" input="SourceAlpha"/>
      <feGaussianBlur stdDeviation="3" result="blur"/>
      <feFlood flood-opacity="0.161"/>
      <feComposite operator="in" in2="blur"/>
      <feComposite in="SourceGraphic"/>
    </filter>
  </defs>
  <g id="Grupo_4206" data-name="Grupo 4206" transform="translate(-332 -575)">
    <g transform="matrix(1, 0, 0, 1, 332, 575)" filter="url(#Elipse_114)">
      <circle id="Elipse_114-2" data-name="Elipse 114" cx="24.5" cy="24.5" r="24.5" transform="translate(9 6)" fill="#32b6dd"/>
    </g>
    <g id="Grupo_3912" data-name="Grupo 3912" transform="translate(345.707 582.95)">
      <path id="Trazado_1445" data-name="Trazado 1445" d="M8.819,34.039c0-.173-.046-.25-.223-.281-.968-.17-1.937-.343-2.9-.532-.25-.049-.353.01-.423.263-.606,2.165-1.226,4.325-1.844,6.487-.029.1-.015.221-.134.277v.657a1.294,1.294,0,0,0,1.238.841c1.346,0,2.693-.006,4.039,0,.212,0,.25-.07.249-.262Q8.809,37.766,8.819,34.039Z" transform="translate(0 -6.205)" fill="#fff"/>
      <path id="Trazado_1446" data-name="Trazado 1446" d="M29.009,37.385l-16.53-3.027c-.006.073-.015.126-.015.18,0,2.408,0,4.815-.008,7.222,0,.285.149.251.327.251q5.219,0,10.439,0a.715.715,0,0,0,.5-.183c1.311-1.11,2.629-2.211,3.944-3.314Z" transform="translate(-2.071 -6.465)" fill="#fff"/>
      <path id="Trazado_1447" data-name="Trazado 1447" d="M42.828,39.936q-.774-2.721-1.548-5.444c-.184-.646-.374-1.291-.57-1.97L29.9,41.594h11.68A1.169,1.169,0,0,0,42.828,39.936Z" transform="translate(-6.013 -6.05)" fill="#fff"/>
      <path id="Trazado_1448" data-name="Trazado 1448" d="M7.017,29.99c.151.028.3.06.45.087l10.573,1.937q5.464,1,10.928,2a.547.547,0,0,0,.5-.118q2.662-2.213,5.34-4.408a.3.3,0,0,0,.118-.385c-.253-.835-.484-1.677-.724-2.516a1.235,1.235,0,0,0-1.418-1.065H31.134l.009-.007h-5.6c-.091.137-.179.273-.272.412a44.8,44.8,0,0,1-3.5,4.536,1.276,1.276,0,0,1-1.895,0,44.8,44.8,0,0,1-3.5-4.536c-.094-.139-.183-.275-.272-.412h-4.96l.007.005c-.778,0-1.555,0-2.332,0a1.192,1.192,0,0,0-1.285.983Q7.1,27.99,6.679,29.47C6.555,29.9,6.556,29.9,7.017,29.99Z" transform="translate(-0.749 -4.467)" fill="#fff"/>
      <path id="Trazado_1449" data-name="Trazado 1449" d="M22.986,25.145a44.035,44.035,0,0,0,3.188-4.092c1.762-2.561,3.6-5.866,3.6-8.514a6.788,6.788,0,1,0-13.576,0c0,2.649,1.838,5.953,3.6,8.514A43.879,43.879,0,0,0,22.986,25.145Zm0-15.031a2.424,2.424,0,1,1-2.424,2.424A2.424,2.424,0,0,1,22.986,10.114Z" transform="translate(-2.916 0)" fill="#fff"/>
    </g>
  </g>
</svg>
