<svg xmlns="http://www.w3.org/2000/svg" width="15.813" height="15.813" viewBox="0 0 15.813 15.813">
  <g id="Grupo_3876" data-name="Grupo 3876" transform="translate(-44 -557.313)">
    <path id="ic_schedule_24px" d="M9.9,2a7.906,7.906,0,1,0,7.914,7.906A7.9,7.9,0,0,0,9.9,2Zm.008,14.231a6.325,6.325,0,1,1,6.325-6.325A6.323,6.323,0,0,1,9.906,16.231Z" transform="translate(42 555.313)" fill="#00acd8"/>
    <path id="Trazado_1411" data-name="Trazado 1411" d="M-723.531,32.118c.143.026.206.071.191.228-.017.178,0,.36-.006.539-.006.119.02.171.154.165.245-.011.492-.008.738,0,.114,0,.16-.024.154-.148-.01-.2,0-.4-.005-.594-.005-.113.034-.147.144-.17a2.254,2.254,0,0,0,1.9-2.2,2.034,2.034,0,0,0-.906-1.9,2.912,2.912,0,0,0-.991-.407c-.11-.026-.145-.068-.142-.178.008-.276,0-.552,0-.828v-.9a.681.681,0,0,1,.248.215,1.388,1.388,0,0,1,.215.678c.013.122.057.149.171.13.39-.064.781-.121,1.173-.178.062-.009.1-.021.089-.1a2.159,2.159,0,0,0-1.6-2.014c-.289-.077-.293-.08-.3-.371,0-.1-.03-.136-.131-.134q-.393.007-.786,0c-.1,0-.142.033-.127.134.006.041,0,.084,0,.126.016.125-.018.185-.162.211a2.179,2.179,0,0,0-1.233.65,2.142,2.142,0,0,0,.525,3.3,4.594,4.594,0,0,0,.763.312c.078.022.107.055.107.135,0,.671,0,1.342,0,2.041a1.131,1.131,0,0,1-.575-.677,3.335,3.335,0,0,1-.14-.667c-.012-.1-.044-.132-.147-.111-.376.075-.753.144-1.131.211-.078.014-.113.037-.108.125a2.759,2.759,0,0,0,.436,1.443A2.158,2.158,0,0,0-723.531,32.118Zm1.235-3.086a.755.755,0,0,1,.612.794.977.977,0,0,1-.612,1.016Zm-1.056-1.758a.754.754,0,0,1-.539-.774.791.791,0,0,1,.539-.787Z" transform="translate(774.446 536.879)" fill="#00acd8"/>
  </g>
</svg>
