<svg xmlns="http://www.w3.org/2000/svg" width="19.248" height="14.924" viewBox="0 0 19.248 14.924">
  <g id="Grupo_3864" data-name="Grupo 3864" transform="translate(-8.342 -12.084)">
    <path id="Trazado_1422" data-name="Trazado 1422" d="M10.421,35.228a.627.627,0,0,1,.926.023c.058.053.078.029.116-.013a.63.63,0,0,1,.549-.2.57.57,0,0,1,.559.582c.008.308,0,.616,0,.924,0,.09-.034.109-.115.11-.233.005-.232.009-.233-.217s.008-.475,0-.712a.344.344,0,0,0-.473-.349.361.361,0,0,0-.253.373c-.008.258-.013.516,0,.772.008.165-.095.129-.186.132s-.176.015-.169-.133c.013-.251.006-.5,0-.757,0-.27-.12-.4-.347-.4a.358.358,0,0,0-.378.4c-.006.252-.011.506,0,.757.008.144-.07.138-.167.137s-.194.017-.19-.147c.012-.424,0-.849.006-1.273,0-.065-.04-.176.091-.158C10.26,35.094,10.431,34.983,10.421,35.228Z" transform="translate(-0.727 -9.691)" fill="#009ACE"/>
    <path id="Trazado_1423" data-name="Trazado 1423" d="M38.515,34.792c0-.228.011-.435,0-.64-.012-.167.09-.142.19-.146s.165.005.164.142c-.008.63,0,1.261-.006,1.891,0,.065.057.188-.083.179-.1-.007-.276.1-.273-.136a.779.779,0,0,1-1.083-.094.894.894,0,0,1,.017-1.129A.784.784,0,0,1,38.515,34.792Zm.019.644a.475.475,0,1,0-.47.5A.469.469,0,0,0,38.534,35.436Z" transform="translate(-12.197 -9.256)" fill="#009ACE"/>
    <path id="Trazado_1424" data-name="Trazado 1424" d="M32.987,35.231c0-.23.161-.134.261-.147.13-.016.095.09.095.157,0,.419,0,.837,0,1.255,0,.064.045.175-.086.162-.1-.009-.274.09-.268-.156a.7.7,0,0,1-.61.191.758.758,0,0,1-.478-.266.892.892,0,0,1,.029-1.14A.767.767,0,0,1,32.987,35.231Zm.031.638a.477.477,0,1,0-.465.508A.471.471,0,0,0,33.018,35.868Z" transform="translate(-9.867 -9.697)" fill="#009ACE"/>
    <path id="Trazado_1425" data-name="Trazado 1425" d="M16.218,36.514a.783.783,0,0,1-1.091-.087.888.888,0,0,1,.027-1.141.758.758,0,0,1,1.039-.068.264.264,0,0,1,.324-.136c.054.017.05.055.05.1,0,.465,0,.929,0,1.394,0,.066-.029.1-.088.086C16.385,36.63,16.211,36.764,16.218,36.514Zm-.928-.639a.475.475,0,1,0,.479-.506A.469.469,0,0,0,15.29,35.875Z" transform="translate(-2.783 -9.695)" fill="#009ACE"/>
    <path id="Trazado_1426" data-name="Trazado 1426" d="M24.737,36c-.166,0-.333,0-.5,0-.083,0-.095.034-.067.1a.412.412,0,0,0,.336.271.647.647,0,0,0,.478-.1c.129-.087.139.034.186.09s.08.107-.009.171a.961.961,0,0,1-1.14-.058.927.927,0,0,1-.1-1.106.784.784,0,0,1,.924-.286.811.811,0,0,1,.475.834c-.009.069-.04.081-.1.08C25.06,36,24.9,36,24.737,36Zm-.188-.272c.1,0,.191-.005.286,0,.131.009.128-.052.09-.145a.382.382,0,0,0-.4-.24.406.406,0,0,0-.364.291c-.018.066,0,.094.068.092C24.339,35.73,24.444,35.731,24.55,35.731Z" transform="translate(-6.52 -9.692)" fill="#009ACE"/>
    <path id="Trazado_1427" data-name="Trazado 1427" d="M19.02,36.7a1.252,1.252,0,0,1-.567-.142c-.059-.033-.132-.066-.056-.141.057-.056.038-.232.2-.136a.846.846,0,0,0,.571.1c.1-.017.212-.042.217-.17s-.113-.14-.2-.161c-.122-.028-.25-.036-.372-.066-.267-.066-.4-.221-.4-.441a.481.481,0,0,1,.429-.473,1.235,1.235,0,0,1,.783.088c.061.027.1.064.049.121s-.028.222-.176.169a1.339,1.339,0,0,0-.425-.1.422.422,0,0,0-.205.044.149.149,0,0,0-.09.145.123.123,0,0,0,.106.114c.088.021.177.038.267.051a1.312,1.312,0,0,1,.309.073.412.412,0,0,1,.293.367.449.449,0,0,1-.234.443A.99.99,0,0,1,19.02,36.7Z" transform="translate(-4.232 -9.692)" fill="#009ACE"/>
    <path id="Trazado_1428" data-name="Trazado 1428" d="M21.472,35.522c0-.106-.005-.212,0-.318s-.032-.139-.138-.135c-.168.006-.236-.1-.18-.266.024-.07.083-.055.127-.048.169.028.211-.054.191-.2,0-.035,0-.071,0-.106-.022-.141.04-.173.175-.177.153,0,.184.05.179.19-.01.292,0,.292.289.292h.091c.164,0,.235.116.173.274-.021.054-.061.043-.1.043-.116,0-.232.005-.348,0-.087,0-.113.031-.11.114,0,.187,0,.373,0,.56,0,.263.12.366.362.272.174-.067.2.012.239.14.02.071.013.113-.059.143a.8.8,0,0,1-.6.029.41.41,0,0,1-.272-.369c-.016-.145-.016-.292-.023-.438Z" transform="translate(-5.403 -9.368)" fill="#009ACE"/>
    <path id="Trazado_1429" data-name="Trazado 1429" d="M29.823,35.041a.851.851,0,0,1,.436.107c.07.04.142.082.062.17-.057.063-.048.233-.217.128a.537.537,0,0,0-.467-.053.5.5,0,0,0-.293.634.468.468,0,0,0,.55.338c.064-.011.125-.04.188-.056s.092-.1.144-.038a.688.688,0,0,1,.125.221c.017.049-.048.069-.085.091a.944.944,0,0,1-1.013-.069.874.874,0,0,1-.233-.968A.806.806,0,0,1,29.823,35.041Z" transform="translate(-8.708 -9.694)" fill="#009ACE"/>
    <path id="Trazado_1430" data-name="Trazado 1430" d="M35.67,35.232a.54.54,0,0,1,.549-.176c.07.015.092.043.07.114-.04.128-.056.246-.259.207-.227-.043-.362.1-.369.349-.008.267-.012.535,0,.8.008.181-.114.118-.2.13-.106.015-.153-.015-.151-.136.008-.423,0-.848.006-1.271,0-.062-.053-.175.079-.169C35.5,35.087,35.661,35,35.67,35.232Z" transform="translate(-11.386 -9.693)" fill="#009ACE"/>
    <path id="Trazado_1431" data-name="Trazado 1431" d="M27.427,35.209a.539.539,0,0,1,.522-.157c.086.017.112.05.073.132a.831.831,0,0,0-.042.13c-.017.063-.045.081-.119.069-.321-.049-.455.064-.463.389-.007.252-.011.506,0,.757.007.151-.084.13-.173.128s-.181.031-.177-.125c.009-.439,0-.879,0-1.318,0-.062-.018-.155.086-.133s.238-.1.261.1C27.4,35.188,27.412,35.195,27.427,35.209Z" transform="translate(-7.899 -9.693)" fill="#009ACE"/>
    <g id="Grupo_3863" data-name="Grupo 3863" transform="translate(8.342 12.084)">
      <path id="Trazado_1432" data-name="Trazado 1432" d="M34.842,17.123a5.956,5.956,0,0,0-8.392-4.478,4.552,4.552,0,0,0-.77.44l.122.108a6.345,6.345,0,0,1,2.159,3.985,6.516,6.516,0,0,1-.091,2.257l-.014.087-.039.125-.211.659a6.414,6.414,0,0,1-1.812,2.573c-.1.087-.107.121.012.194a5.86,5.86,0,0,0,4.037.838A5.938,5.938,0,0,0,34.842,17.123Z" transform="translate(-15.663 -12.084)" fill="#009ACE"/>
      <path id="Trazado_1433" data-name="Trazado 1433" d="M17.484,22.9a4.959,4.959,0,0,1-.567-.545,6.635,6.635,0,0,1-1.253-2.006l-.05-.133-.015-.047-.028-.062a.457.457,0,0,0-.056-.183l-.022-.062-.031-.125a.191.191,0,0,0-.029-.112l-.021-.091-.023-.094a.394.394,0,0,0,0-.046,6.315,6.315,0,0,1,2.1-6.214c.1-.091.072-.118-.021-.176a5.853,5.853,0,0,0-3.961-.857,5.944,5.944,0,1,0,3.968,10.919C17.555,23.01,17.584,22.978,17.484,22.9Z" transform="translate(-8.342 -12.086)" fill="#009ACE"/>
      <path id="Trazado_1434" data-name="Trazado 1434" d="M24.617,22.279A4.843,4.843,0,0,0,25.251,21a.241.241,0,0,0,.059-.152,1.163,1.163,0,0,0,.1-.362.059.059,0,0,0,.023-.062l.029-.121a.2.2,0,0,0,.023-.123.675.675,0,0,0,.044-.27.166.166,0,0,0,.026-.122v-.091a.153.153,0,0,0,.025-.122,5.874,5.874,0,0,0-2.145-5.183c-.085-.073-.133-.045-.2.013a5.888,5.888,0,0,0-1.835,2.64,5.812,5.812,0,0,0-.117,3.5.184.184,0,0,0,.039.126l.051.177a.5.5,0,0,0,.07.206.374.374,0,0,0,.072.162.106.106,0,0,0,.03.085,5.842,5.842,0,0,0,1.721,2.3c.079.066.124.024.18-.023A5.84,5.84,0,0,0,24.617,22.279Zm-1.393-1.773h0l0,0Zm-.18-.09a.231.231,0,0,0-.091.012A.231.231,0,0,1,23.043,20.417Z" transform="translate(-13.714 -13.039)" fill="#009ACE"/>
    </g>
  </g>
</svg>
