<svg xmlns="http://www.w3.org/2000/svg" width="10.909" height="15" viewBox="0 0 10.909 15">
  <path id="path" d="M526.855,11.591V9.545l2.727,2.727L526.855,15V12.955a5.054,5.054,0,0,1-3.818-1.636A5.27,5.27,0,0,1,521.4,7.5a4.958,4.958,0,0,1,.886-2.932l1.023,1.023a3.615,3.615,0,0,0-.477,1.909,3.714,3.714,0,0,0,1.227,2.864A4.05,4.05,0,0,0,526.855,11.591Zm0-9.545a5.054,5.054,0,0,1,3.818,1.636A5.27,5.27,0,0,1,532.309,7.5a4.957,4.957,0,0,1-.886,2.932L530.4,9.409a3.615,3.615,0,0,0,.477-1.909,3.714,3.714,0,0,0-1.227-2.864,3.926,3.926,0,0,0-2.8-1.227V5.455l-2.727-2.727L526.855,0Z" transform="translate(-521.4)" fill="#32b6dd"/>
</svg>
