<svg xmlns="http://www.w3.org/2000/svg" xmlns:xlink="http://www.w3.org/1999/xlink" width="67" height="67" viewBox="0 0 67 67">
  <defs>
    <filter id="Elipse_115" x="0" y="0" width="67" height="67" filterUnits="userSpaceOnUse">
      <feOffset dy="3" input="SourceAlpha"/>
      <feGaussianBlur stdDeviation="3" result="blur"/>
      <feFlood flood-opacity="0.161"/>
      <feComposite operator="in" in2="blur"/>
      <feComposite in="SourceGraphic"/>
    </filter>
  </defs>
  <g id="Grupo_4207" data-name="Grupo 4207" transform="translate(-332 -511)">
    <g transform="matrix(1, 0, 0, 1, 332, 511)" filter="url(#Elipse_115)">
      <circle id="Elipse_115-2" data-name="Elipse 115" cx="24.5" cy="24.5" r="24.5" transform="translate(9 6)" fill="#32b6dd"/>
    </g>
    <g id="Grupo_3913" data-name="Grupo 3913" transform="translate(342.649 517.087)">
      <path id="Trazado_1450" data-name="Trazado 1450" d="M23.219,14.312c-2.444,0-4.888-.007-7.332,0-.693,0-1.393-.035-1.562-.847-.164-.785.3-1.215,1.068-1.353.549-.1.337-.574.378-.891a7.538,7.538,0,0,1,3.41-5.474c.529-.363.733-.277.813.368.107.866.294,1.721.435,2.583.065.4.221.745.676.685.519-.07.564-.464.482-.913-.189-1.038-.3-2.094-.55-3.117-.233-.956.266-1.3,1.033-1.383a11.94,11.94,0,0,1,2.4,0c.764.078,1.27.422,1.036,1.381-.251,1.023-.36,2.078-.549,3.117-.082.448-.04.844.479.915.455.062.613-.281.678-.683.141-.861.329-1.716.436-2.583.079-.639.277-.737.811-.37a7.419,7.419,0,0,1,3.382,5.365c.07.553.043,1.035.821,1.146a.91.91,0,0,1,.659,1.206,1.1,1.1,0,0,1-1.235.846c-1.934-.007-3.867,0-5.8,0Z" transform="translate(-0.482 0)" fill="#fff"/>
      <path id="Trazado_1451" data-name="Trazado 1451" d="M22.7,26.33c-1.516-.028-2.942-1.173-4.171-2.633a5.749,5.749,0,0,1-1.083-1.629c-.566-1.56-2.076-2.618-2.237-4.39-.067-.733.133-.976.857-.9.361.038.516.1.493.5-.059.964-.036,1.9,1.049,2.393.171.078.2.448.311.68a9.317,9.317,0,0,0,2.773,3.728,3.975,3.975,0,0,0,5.047.029,8.9,8.9,0,0,0,2.036-2.261c.611-.9.795-2.045,1.773-2.757a1.736,1.736,0,0,0,.413-1.641c-.119-.708.266-.644.731-.672.676-.04.583.387.519.777a3.611,3.611,0,0,1-1.07,2.431c-.268.221-.309.564-.448.855a10.915,10.915,0,0,1-3.61,4.569A5.461,5.461,0,0,1,22.7,26.33Z" transform="translate(-0.556 -1.043)" fill="#fff"/>
      <path id="Trazado_1452" data-name="Trazado 1452" d="M29.573,39.515a6.246,6.246,0,0,0-12.489,0c0,.046,0,.092,0,.138a6.248,6.248,0,0,0,12.5,0C29.576,39.6,29.574,39.559,29.573,39.515Zm-3.266.127v3.4H24.179V40.493h-1.7v2.553H20.349v-3.4H19.072l4.256-3.83,4.255,3.83Z" transform="translate(-0.708 -2.393)" fill="#fff"/>
      <path id="Trazado_1453" data-name="Trazado 1453" d="M37.182,33.994A10.366,10.366,0,0,0,35.3,29.857a4.982,4.982,0,0,0-3.464-2.072c-1.516-.164-3.13-.859-4.407.714a2.508,2.508,0,0,1-1.166.559,11.97,11.97,0,0,1-5.827.29,4.227,4.227,0,0,1-2.575-1.071,2.5,2.5,0,0,0-2.312-.731c-2.659.087-4.842,1-6.064,3.526a17.159,17.159,0,0,0-.948,2.43,2.652,2.652,0,0,0,1.42,3.478,7.2,7.2,0,0,0,.733.368l0,0,.04.015a11.2,11.2,0,0,0,1.433.5,32.77,32.77,0,0,0,3.176.843,7.343,7.343,0,0,1,14.67.019c1.337-.268,2.448-.566,3.27-.816a10.616,10.616,0,0,0,1.6-.548l.026-.011h0a6.82,6.82,0,0,0,1.285-.747A2.442,2.442,0,0,0,37.182,33.994Z" transform="translate(0 -1.913)" fill="#fff"/>
    </g>
  </g>
</svg>
