<svg xmlns="http://www.w3.org/2000/svg" width="30.633" height="20.948" viewBox="0 0 30.633 20.948">
  <g id="ic_people_24px" transform="translate(1 -3)" fill="none" stroke-linejoin="round">
    <path d="M19.159,12.264a3.632,3.632,0,1,0-3.632-3.632A3.617,3.617,0,0,0,19.159,12.264Zm-9.685,0A3.632,3.632,0,1,0,5.842,8.632,3.617,3.617,0,0,0,9.474,12.264Zm0,2.421C6.653,14.685,1,16.1,1,18.922v3.026H17.948V18.922C17.948,16.1,12.295,14.685,9.474,14.685Zm9.685,0c-.351,0-.751.024-1.174.061a5.109,5.109,0,0,1,2.385,4.177v3.026h7.264V18.922C27.633,16.1,21.98,14.685,19.159,14.685Z" stroke="none"/>
    <path d="M 9.474157333374023 5.000003814697266 C 7.464567184448242 5.000003814697266 5.842376708984375 6.622194290161133 5.842376708984375 8.631784439086914 C 5.842376708984375 10.64136505126953 7.464567184448242 12.26356410980225 9.474157333374023 12.26356410980225 C 11.48373794555664 12.26356410980225 13.09382724761963 10.64136505126953 13.09382724761963 8.631784439086914 C 13.09382724761963 6.622194290161133 11.48373794555664 5.000003814697266 9.474157333374023 5.000003814697266 M 19.15889739990234 5.000003814697266 C 17.14931869506836 5.000003814697266 15.52711772918701 6.622194290161133 15.52711772918701 8.631784439086914 C 15.52711772918701 10.64136505126953 17.14931869506836 12.26356410980225 19.15889739990234 12.26356410980225 C 21.16848754882813 12.26356410980225 22.77857780456543 10.64136505126953 22.77857780456543 8.631784439086914 C 22.77857780456543 6.622194290161133 21.16848754882813 5.000003814697266 19.15889739990234 5.000003814697266 M 9.474157333374023 14.6847448348999 C 6.653467178344727 14.6847448348999 0.9999980926513672 16.10114479064941 0.9999980926513672 18.92182540893555 L 0.9999980926513672 21.94830513000488 L 17.94830703735352 21.94830513000488 L 17.94830703735352 18.92182540893555 C 17.94830703735352 16.10114479064941 12.29483795166016 14.6847448348999 9.474157333374023 14.6847448348999 M 19.15889739990234 14.6847448348999 C 18.80782699584961 14.6847448348999 18.4083366394043 14.70896434783936 17.98462677001953 14.74527454376221 C 19.388916015625 15.76217460632324 20.36949729919434 17.1301441192627 20.36949729919434 18.92182540893555 L 20.36949729919434 21.94830513000488 L 27.633056640625 21.94830513000488 L 27.633056640625 18.92182540893555 C 27.633056640625 16.10114479064941 21.97958755493164 14.6847448348999 19.15889739990234 14.6847448348999 M 9.474157333374023 3.000003814697266 C 10.98129653930664 3.000003814697266 12.39507675170898 3.586463928222656 13.45505714416504 4.65135383605957 C 13.79078388214111 4.98863410949707 14.07852935791016 5.361330032348633 14.31498146057129 5.761299133300781 C 15.29764270782471 4.109199523925781 17.10109710693359 3.000003814697266 19.15889739990234 3.000003814697266 C 20.66604804992676 3.000003814697266 22.07982635498047 3.586463928222656 23.13980674743652 4.65135383605957 C 24.19658660888672 5.713024139404297 24.77857780456543 7.12663459777832 24.77857780456543 8.631784439086914 C 24.77857780456543 10.13693428039551 24.19658660888672 11.55054473876953 23.13980674743652 12.61221408843994 C 22.96551513671875 12.78731250762939 22.78171920776367 12.94942855834961 22.58945465087891 13.09817695617676 C 23.50240707397461 13.30085182189941 24.40099716186523 13.57023239135742 25.19679641723633 13.88868427276611 C 26.38018798828125 14.36224460601807 27.34402656555176 14.93787479400635 28.06152725219727 15.59958457946777 C 29.36040687561035 16.7974739074707 29.633056640625 18.06741333007813 29.633056640625 18.92182540893555 L 29.633056640625 21.94830513000488 C 29.633056640625 23.05287551879883 28.73762702941895 23.94830513000488 27.633056640625 23.94830513000488 L 20.36949729919434 23.94830513000488 C 19.91449737548828 23.94830513000488 19.49495887756348 23.79634666442871 19.15890121459961 23.54043769836426 C 18.82284545898438 23.79634666442871 18.4033088684082 23.94830513000488 17.94830703735352 23.94830513000488 L 0.9999980926513672 23.94830513000488 C -0.1045722961425781 23.94830513000488 -1.000001907348633 23.05287551879883 -1.000001907348633 21.94830513000488 L -1.000001907348633 18.92182540893555 C -1.000001907348633 18.06741333007813 -0.7273521423339844 16.7974739074707 0.5715274810791016 15.59958457946777 C 1.289028167724609 14.93787479400635 2.252866744995117 14.36224460601807 3.436258316040039 13.88868427276611 C 4.232837677001953 13.56991958618164 5.132577896118164 13.30028629302979 6.046453475952148 13.09754371643066 C 4.707050323486328 12.06705951690674 3.842376708984375 10.44849395751953 3.842376708984375 8.631784439086914 C 3.842376708984375 5.52641487121582 6.36878776550293 3.000003814697266 9.474157333374023 3.000003814697266 Z M 16.39175033569336 13.5356969833374 C 15.53527069091797 13.05045986175537 14.81767082214355 12.34741687774658 14.31498146057129 11.50226974487305 C 14.07852935791016 11.90223979949951 13.79078388214111 12.27493476867676 13.45505714416504 12.61221408843994 C 13.28076648712158 12.78731250762939 13.09697151184082 12.94942760467529 12.90470695495605 13.09817504882813 C 13.81765747070313 13.3008508682251 14.71625232696533 13.57023239135742 15.51204776763916 13.88868427276611 C 15.70771408081055 13.96698474884033 15.89744663238525 14.0481071472168 16.08098793029785 14.13191604614258 C 16.15136337280273 13.9133415222168 16.25741004943848 13.71252822875977 16.39175033569336 13.5356969833374 Z" stroke="none" fill="#32b6dd"/>
  </g>
</svg>
