<svg xmlns="http://www.w3.org/2000/svg" width="22" height="22" viewBox="0 0 22 22">
  <g id="Grupo_2" data-name="Grupo 2" transform="translate(-386 -2589)">
    <path id="ic_dehaze_24px" d="M2,12.542V13.95h8.65V12.542ZM2,9.021v1.408h8.65V9.021ZM2,5.5V6.908h8.65V5.5Z" transform="translate(393 2588.5)" fill="#32b6dd"/>
    <path id="ic_filter_7_24px" d="M3,5H1V21a2.006,2.006,0,0,0,2,2H19V21H3ZM21,1H7A2.006,2.006,0,0,0,5,3V17a2.006,2.006,0,0,0,2,2H21a2.006,2.006,0,0,0,2-2V3A2.006,2.006,0,0,0,21,1Zm0,16H7V3H21Z" transform="translate(385 2588)" fill="#32b6dd"/>
  </g>
</svg>
