<svg xmlns="http://www.w3.org/2000/svg" width="28.059" height="28.059" viewBox="0 0 28.059 28.059">
  <g id="Grupo_4108" data-name="Grupo 4108" transform="translate(0)">
    <g id="Grupo_4056" data-name="Grupo 4056" transform="translate(0 0)">
      <path id="Trazado_1464" data-name="Trazado 1464" d="M24.624,2.5c-.209,0-.417.007-.624.016V30.543c.207.009.415.016.624.016a14.029,14.029,0,0,0,0-28.059Z" transform="translate(-10.594 -2.5)" fill="#00acd8"/>
      <path id="Trazado_1465" data-name="Trazado 1465" d="M4.059,16.539A12.461,12.461,0,0,1,15.906,4.1V2.525a14.028,14.028,0,0,0,0,28.028V28.978A12.461,12.461,0,0,1,4.059,16.539Z" transform="translate(-2.5 -2.509)" fill="#00acd8"/>
      <path id="Trazado_1466" data-name="Trazado 1466" d="M24.624,5c-.211,0-.416.021-.624.031V29.91c.208.01.413.031.624.031A12.471,12.471,0,1,0,24.624,5Z" transform="translate(-10.594 -3.441)" fill="#0097ce"/>
      <path id="Trazado_1467" data-name="Trazado 1467" d="M5,17.489A12.461,12.461,0,0,0,16.847,29.929V5.05A12.461,12.461,0,0,0,5,17.489Z" transform="translate(-3.441 -3.46)" fill="#32b6dd"/>
    </g>
    <g id="Grupo_4057" data-name="Grupo 4057" transform="translate(4.706 4.677)">
      <path id="Trazado_1468" data-name="Trazado 1468" d="M20.99,27.636a6.659,6.659,0,1,1,6.635-6.649A6.648,6.648,0,0,1,20.99,27.636ZM15.274,20.7c.075,0,.15,0,.225,0a.282.282,0,0,1,.292.277.279.279,0,0,1-.285.285c-.15.007-.3.009-.45,0-.112-.006-.152.023-.143.146a6.079,6.079,0,0,0,.882,2.759,5.926,5.926,0,0,0,1.762,1.846,6.092,6.092,0,0,0,2.971,1.04c.133.01.18-.023.169-.158a3.461,3.461,0,0,1,0-.394c.007-.2.119-.323.291-.32s.269.117.276.312a3.647,3.647,0,0,1,0,.413c-.009.131.045.162.163.146.167-.023.337-.026.5-.056a6.113,6.113,0,0,0,5.12-5.6c.009-.113-.026-.142-.13-.137-.15.006-.3,0-.45,0a.288.288,0,0,1-.3-.272.285.285,0,0,1,.3-.291c.15,0,.3-.006.45,0,.107,0,.141-.029.132-.14a6.114,6.114,0,0,0-5.387-5.631c-.4-.054-.4-.045-.4.359,0,.051,0,.1,0,.15-.006.217-.112.343-.286.342s-.272-.129-.284-.347c-.01-.172.081-.409-.041-.5s-.347,0-.526.02a6.083,6.083,0,0,0-5.187,5.387C14.908,20.7,14.908,20.7,15.274,20.7Z" transform="translate(-11.663 -11.626)" fill="#fff"/>
      <path id="Trazado_1469" data-name="Trazado 1469" d="M23.176,23.455a.317.317,0,0,1-.228-.123Q21.633,22,20.317,20.661a.287.287,0,0,1-.033-.418.26.26,0,0,1,.409.01c.532.526,1.058,1.059,1.586,1.59.282.284.566.565.841.855a.177.177,0,0,0,.266.038c.693-.41,1.392-.81,2.089-1.213a.39.39,0,0,1,.243-.084.271.271,0,0,1,.254.215.275.275,0,0,1-.14.319c-.253.148-.508.294-.761.441q-.8.465-1.6.928A.545.545,0,0,1,23.176,23.455Z" transform="translate(-13.873 -13.821)" fill="#fff"/>
      <path id="Trazado_1470" data-name="Trazado 1470" d="M28.686,18.771c-.007-.219-.141-.35-.315-.342s-.274.13-.275.369c0,.413.017.824-.012,1.239a9.331,9.331,0,0,1-.788,3.016,7.91,7.91,0,0,1-1.1,1.755,8.594,8.594,0,0,1-1.9,1.75,8.959,8.959,0,0,1-3.772,1.459,8.12,8.12,0,0,1-2.674-.055,9.716,9.716,0,0,1-1.207-.307q-.314-.1-.617-.223v.011c-.247-.1-.491-.217-.731-.342a8.953,8.953,0,0,1-3.054-2.65,8.114,8.114,0,0,1-1.2-2.389,9.659,9.659,0,0,1-.294-1.21,8.418,8.418,0,0,1-.062-2.576A8.817,8.817,0,0,1,14.618,12a8.461,8.461,0,0,1,3.772-1.349,8.624,8.624,0,0,1,3.245.249,8.948,8.948,0,0,1,2.842,1.35A8.742,8.742,0,0,1,27,15.078c.032.057.094.13.051.188s-.142.027-.21,0c-.224-.072-.445-.155-.668-.231a.311.311,0,0,0-.415.166.307.307,0,0,0,.213.38c.531.2,1.076.349,1.6.561a.31.31,0,0,0,.421-.223c.112-.369.251-.73.352-1.1a2.849,2.849,0,0,0,.176-.609.252.252,0,0,0-.214-.3.26.26,0,0,0-.337.186c-.078.256-.168.508-.256.76-.015.043,0,.118-.069.115-.048,0-.074-.06-.1-.1a9.242,9.242,0,0,0-2.921-3.229,9.149,9.149,0,0,0-4.31-1.589,8.746,8.746,0,0,0-2.85.144,9.576,9.576,0,0,0-2.789,1.073,9.421,9.421,0,0,0-4.363,5.8,8.078,8.078,0,0,0-.267,2.033,9.67,9.67,0,0,0,.493,3.27,6.32,6.32,0,0,0,.3.809c.222.437.463.868.726,1.285a8.9,8.9,0,0,0,2.173,2.334,9.475,9.475,0,0,0,2.882,1.478,9.117,9.117,0,0,0,5.51-.012,10.574,10.574,0,0,0,2.1-.942.436.436,0,0,0,.128-.108,9.808,9.808,0,0,0,1.608-1.282,9.124,9.124,0,0,0,2.568-4.875A10.592,10.592,0,0,0,28.686,18.771Z" transform="translate(-10.047 -10)" fill="#fff"/>
    </g>
  </g>
</svg>
