<svg xmlns="http://www.w3.org/2000/svg" width="25.355" height="8.181" viewBox="0 0 25.355 8.181">
  <g id="Grupo_3860" data-name="Grupo 3860" transform="translate(-4.922 -18.521)">
    <path id="Trazado_1418" data-name="Trazado 1418" d="M40.791,26.659a.148.148,0,0,1-.064.005H38.964c-.061,0-.061,0-.073-.057-.029-.134-.057-.269-.085-.4q-.069-.33-.138-.659a.2.2,0,0,1-.007-.026c0-.033-.02-.041-.049-.038a.3.3,0,0,1-.033,0H36.1c-.082,0-.067-.009-.093.064q-.192.529-.383,1.059c-.022.061-.022.061-.082.061H33.457c-.007-.03.01-.051.02-.073q.766-1.828,1.533-3.656l1.5-3.582a.927.927,0,0,1,.681-.582.847.847,0,0,1,.192-.021h1.7c.056,0,.057,0,.068.056q.334,1.6.669,3.2.29,1.386.581,2.771.194.925.388,1.852A.047.047,0,0,1,40.791,26.659ZM37.7,20.909h-.011l-1.071,2.948h1.7Z" transform="translate(-10.517 -0.085)" fill="#32b6dd"/>
    <path id="Trazado_1419" data-name="Trazado 1419" d="M10.258,24.112c.027-.013.027-.035.033-.052q.65-1.639,1.3-3.277l.783-1.976c.027-.068.018-.056.08-.056h2.084c.009.029-.008.049-.017.07l-.83,1.978-2.432,5.794c0,.008-.008.016-.01.025a.058.058,0,0,1-.067.047H9.109c-.049,0-.05,0-.066-.061l-.337-1.3q-.4-1.538-.8-3.076-.249-.964-.5-1.928a1.7,1.7,0,0,0-.09-.265.705.705,0,0,0-.273-.311,2.669,2.669,0,0,0-.373-.193A8.523,8.523,0,0,0,5.408,19.1c-.148-.039-.3-.073-.446-.108-.031-.007-.047-.015-.037-.053a1.463,1.463,0,0,0,.032-.15c.005-.03.02-.042.05-.038a.186.186,0,0,0,.027,0q1.7,0,3.4,0a.958.958,0,0,1,.587.184.98.98,0,0,1,.381.629c.127.666.251,1.332.377,2q.21,1.114.421,2.226C10.218,23.893,10.237,24,10.258,24.112Z" transform="translate(0 -0.084)" fill="#32b6dd"/>
    <path id="Trazado_1420" data-name="Trazado 1420" d="M24.725,24.55l.34.152a3.927,3.927,0,0,0,1.126.313,3.784,3.784,0,0,0,.878.016,1.611,1.611,0,0,0,.585-.172.908.908,0,0,0,.23-.17.588.588,0,0,0,.028-.8,1.307,1.307,0,0,0-.265-.232,4.638,4.638,0,0,0-.615-.347,5.6,5.6,0,0,1-.922-.546,2.718,2.718,0,0,1-.554-.546,1.78,1.78,0,0,1-.348-1.281A2.347,2.347,0,0,1,26.246,19.2a3.5,3.5,0,0,1,1.243-.545,5.091,5.091,0,0,1,1.457-.125,5.544,5.544,0,0,1,1.575.322l.013,0c.035.007.045.023.036.061-.028.114-.049.23-.074.345l-.261,1.218a.215.215,0,0,1-.02.066c-.067-.027-.134-.056-.2-.083a3.962,3.962,0,0,0-1.543-.286,1.8,1.8,0,0,0-.666.119.818.818,0,0,0-.391.3.463.463,0,0,0,.014.554.883.883,0,0,0,.137.146,2.208,2.208,0,0,0,.391.265c.258.141.517.276.775.417a4.215,4.215,0,0,1,.785.537,1.99,1.99,0,0,1,.59.866,1.878,1.878,0,0,1,.092.563,2.45,2.45,0,0,1-.312,1.273,2.549,2.549,0,0,1-.929.927,3.772,3.772,0,0,1-1.139.438,5.345,5.345,0,0,1-1.325.118,6.656,6.656,0,0,1-1.855-.306,2.225,2.225,0,0,1-.237-.09c-.049-.022-.05-.022-.039-.073.04-.189.081-.378.122-.567l.224-1.042Z" transform="translate(-7.163)" fill="#32b6dd"/>
    <path id="Trazado_1421" data-name="Trazado 1421" d="M22.622,18.754c-.052.244-.1.481-.154.717l-.447,2.091q-.2.944-.4,1.889-.224,1.043-.448,2.085l-.229,1.075c-.011.052-.011.052-.064.052H18.927a.067.067,0,0,1-.042-.007.729.729,0,0,1,.03-.167q.379-1.776.76-3.55l.707-3.3c.06-.28.121-.56.181-.84.009-.044,0-.051.064-.051h1.949Z" transform="translate(-5.147 -0.085)" fill="#32b6dd"/>
  </g>
</svg>
