<svg xmlns="http://www.w3.org/2000/svg" xmlns:xlink="http://www.w3.org/1999/xlink" width="62" height="62" viewBox="0 0 62 62">
  <defs>
    <filter id="Elipse_114" x="0" y="0" width="62" height="62" filterUnits="userSpaceOnUse">
      <feOffset dy="3" input="SourceAlpha"/>
      <feGaussianBlur stdDeviation="3" result="blur"/>
      <feFlood flood-opacity="0.161"/>
      <feComposite operator="in" in2="blur"/>
      <feComposite in="SourceGraphic"/>
    </filter>
  </defs>
  <g id="Grupo_3846" data-name="Grupo 3846" transform="translate(-344 -188)">
    <g transform="matrix(1, 0, 0, 1, 344, 188)" filter="url(#Elipse_114)">
      <circle id="Elipse_114-2" data-name="Elipse 114" cx="22" cy="22" r="22" transform="translate(9 6)" fill="#39ae50" opacity="0.85"/>
    </g>
    <g id="Grupo_3845" data-name="Grupo 3845" transform="translate(245.013 85.772)">
      <path id="Trazado_1409" data-name="Trazado 1409" d="M144.045,128.449v1.994a.106.106,0,0,1-.035.071c-.028.029-.016.074-.019.112a13.027,13.027,0,0,1-.424,2.339,13.356,13.356,0,0,1-19,8.216.7.7,0,0,0-.593-.054c-2.246.723-4.5,1.434-6.745,2.148l-.047.016-.192-.192h0c.75-2.209,1.495-4.419,2.249-6.626a.423.423,0,0,0-.053-.391,13.013,13.013,0,0,1-1.574-4.238,12.334,12.334,0,0,1,.413-6.4,13.1,13.1,0,0,1,10.758-9.072,3.972,3.972,0,0,0,.818-.133.124.124,0,0,1,.046-.009h1.963a.139.139,0,0,1,.1.032c.022.021.057.016.088.018a12.041,12.041,0,0,1,2.191.354,13.266,13.266,0,0,1,9.922,10.928,3.857,3.857,0,0,0,.131.845A.122.122,0,0,1,144.045,128.449Zm-23.718,11.412a.128.128,0,0,0,.159.164l.064-.02c1.184-.376,2.372-.74,3.548-1.136a.916.916,0,0,1,.853.1,11,11,0,0,0,7.452,1.476,11.084,11.084,0,0,0,5.414-19.573,11.232,11.232,0,0,0-12.553-1.125,11.1,11.1,0,0,0-4.313,4.267,10.817,10.817,0,0,0-1.279,7.307,10.634,10.634,0,0,0,1.858,4.479.353.353,0,0,1,.05.364c-.186.513-.354,1.033-.529,1.55Z" fill="#fff"/>
      <path id="Trazado_1410" data-name="Trazado 1410" d="M193.857,190.294a2.294,2.294,0,0,0,.3-.021c.447-.055.681.284.86.751.271.707.561,1.408.883,2.093a.932.932,0,0,1-.114,1.036c-.2.269-.419.523-.637.778-.26.3-.277.431-.065.775a8.821,8.821,0,0,0,4.076,3.608c.734.316.762.338,1.24-.23.245-.291.481-.59.716-.889.3-.387.447-.434.894-.231.6.273,1.2.558,1.795.84a5.73,5.73,0,0,0,.57.276.657.657,0,0,1,.459.778c-.077,1.4-.935,2.17-2.394,2.581a3.253,3.253,0,0,1-1.9-.091,15,15,0,0,1-3.483-1.434,13.625,13.625,0,0,1-3.792-3.652A9.065,9.065,0,0,1,191.8,194.7a3.716,3.716,0,0,1,.87-3.986A1.3,1.3,0,0,1,193.857,190.294Z" transform="translate(-67.345 -66.858)" fill="#fff"/>
    </g>
  </g>
</svg>
